<?xml version="1.0" standalone="no"?>
<!DOCTYPE svg PUBLIC "-//W3C//DTD SVG 20010904//EN"
 "http://www.w3.org/TR/2001/REC-SVG-20010904/DTD/svg10.dtd">
<svg version="1.0" xmlns="http://www.w3.org/2000/svg"
 width="700.000000pt" height="700.000000pt" viewBox="0 0 700.000000 700.000000"
 preserveAspectRatio="xMidYMid meet">
<metadata>
Created by potrace 1.11, written by Peter Selinger 2001-2013
</metadata>
<g transform="translate(0.000000,700.000000) scale(0.100000,-0.100000)"
fill="#000000" stroke="none">
<path d="M3045 6981 c-17 -10 -40 -31 -50 -47 -19 -28 -20 -63 -22 -1664 -1
-899 -2 -1640 -3 -1645 0 -7 -192 -10 -587 -10 -696 0 -743 -2 -908 -50 -429
-125 -755 -495 -831 -945 -11 -61 -11 -302 0 -370 24 -163 120 -385 223 -520
182 -239 457 -408 732 -452 l76 -12 -1 -98 c-3 -491 325 -942 806 -1108 141
-48 240 -58 595 -59 312 -1 332 0 362 18 45 28 67 67 67 116 -1 54 -28 98 -74
121 -31 16 -59 19 -193 18 -86 -1 -157 0 -157 2 0 2 15 41 34 86 142 344 192
747 141 1126 -22 158 -89 400 -150 538 l-24 54 37 1 c20 0 264 0 542 0 294 0
518 4 536 10 17 5 44 23 60 40 l29 30 3 1310 c2 1032 5 1309 15 1310 6 1 413
2 903 3 l891 1 -1 -1480 -1 -1480 -150 -1 c-82 -1 -170 -4 -195 -8 -253 -40
-451 -122 -645 -266 -267 -199 -451 -481 -529 -810 -17 -71 -29 -199 -30 -320
l-1 -144 -57 -2 c-31 -2 -70 -10 -86 -18 -98 -51 -96 -193 3 -240 34 -17 67
-18 399 -13 321 4 372 7 458 26 269 59 486 174 682 361 199 190 355 473 400
730 3 19 9 46 13 60 4 14 9 1023 10 2243 l3 2219 -21 35 c-41 66 -42 66 -556
66 l-462 0 -3 588 -3 587 -25 27 c-48 52 -67 55 -362 55 -253 0 -275 -2 -305
-20 -66 -40 -87 -115 -51 -181 37 -67 57 -72 275 -73 128 0 193 -3 194 -10 7
-59 2 -396 -6 -397 -5 -1 -412 -2 -903 -3 l-892 -1 -1 30 c-1 37 -1 356 0 370
1 7 68 11 195 12 183 0 196 1 230 23 20 12 44 36 52 53 20 38 14 104 -12 140
-39 54 -58 57 -361 57 -253 0 -281 -2 -308 -19z m2000 -940 c6 -1 10 -57 10
-148 l0 -148 -466 -1 c-396 -1 -469 -4 -495 -17 -37 -19 -59 -44 -71 -82 -6
-19 -8 -643 -7 -1660 l2 -1630 -621 -1 c-602 0 -701 -3 -797 -25 -59 -14 -62
-15 -80 -22 -8 -3 -38 -13 -67 -22 -28 -9 -91 -36 -138 -61 -48 -24 -89 -44
-91 -44 -2 0 -1 24 2 53 7 66 7 362 1 402 -3 17 -9 55 -12 85 -18 153 -89 416
-150 555 -14 31 -25 58 -25 60 0 3 242 5 538 5 339 0 551 4 574 10 24 7 48 24
65 47 l28 36 2 1306 c1 718 2 1306 2 1306 248 0 1789 -4 1796 -4z m1052 -778
l1 -203 -904 0 -904 0 0 205 0 205 903 -2 902 -3 2 -202z m-4333 -1992 c95
-188 161 -415 183 -631 14 -128 6 -449 -11 -501 -3 -8 -7 -30 -9 -49 -15 -116
-56 -244 -113 -355 -23 -44 -52 -107 -64 -141 l-24 -60 -55 8 c-513 80 -851
572 -746 1087 54 266 262 521 516 634 72 32 220 71 277 73 7 0 28 -29 46 -65z
m1063 -1298 c78 -167 141 -382 158 -543 3 -30 8 -68 10 -85 7 -46 7 -273 0
-335 -14 -127 -34 -225 -80 -400 -10 -38 -60 -162 -97 -243 l-42 -88 -52 6
c-215 25 -436 151 -580 330 -198 246 -252 575 -143 875 106 292 373 516 684
575 39 7 75 14 81 14 6 1 34 -47 61 -106z m3213 -427 c19 -2 40 -4 47 -5 17
-1 9 -275 -11 -369 -97 -451 -430 -783 -881 -877 -46 -10 -140 -18 -222 -20
-140 -2 -143 -2 -144 19 0 11 -2 30 -5 41 -6 28 -6 210 0 237 3 13 8 40 11 60
2 21 13 68 24 105 103 373 406 674 781 777 78 22 104 26 200 33 47 3 86 7 88
8 2 2 37 -1 112 -9z"/>
<path d="M4083 6980 c-80 -48 -89 -157 -17 -219 65 -58 162 -37 205 44 28 53
20 103 -24 151 -27 29 -40 36 -82 39 -38 3 -59 -1 -82 -15z"/>
<path d="M3843 249 c-91 -58 -78 -192 24 -235 42 -18 67 -18 109 2 96 46 99
190 4 239 -40 21 -99 18 -137 -6z"/>
</g>
</svg>
